<?xml version="1.0" encoding="utf-8"?>
<!-- Generator: Adobe Illustrator 24.1.0, SVG Export Plug-In . SVG Version: 6.00 Build 0)  -->
<svg version="1.1" id="Layer_1" xmlns="http://www.w3.org/2000/svg" xmlns:xlink="http://www.w3.org/1999/xlink" x="0px" y="0px"
	 viewBox="0 0 846.84 793.34" style="enable-background:new 0 0 846.84 793.34;" xml:space="preserve">
<style type="text/css">
	.st0{fill:#EC293A;}
</style>
<g>
	<g>
		<polygon points="84.43,745.91 27.19,650.07 5.92,650.07 5.92,784.12 26.26,784.12 26.26,688.3 83.58,784.12 104.85,784.12 
			104.85,650.07 84.43,650.07 		"/>
		<polygon points="125.64,784.12 194.03,784.12 194.03,763.79 145.97,763.79 145.97,727.09 183.06,727.09 183.06,706.75 
			145.97,706.75 145.97,670.41 194.03,670.41 194.03,650.07 125.64,650.07 		"/>
		<polygon points="205.25,670.4 233.64,670.4 233.64,784.12 254.06,784.12 254.06,670.4 282.45,670.4 282.45,650.07 205.25,650.07 
					"/>
		<path d="M719.8,710.49c4.43-6.48,6.66-13.66,6.66-21.54c0-10.74-3.82-19.89-11.44-27.45c-7.55-7.62-16.67-11.43-27.35-11.43
			h-49.46v134.05h20.33v-56.48h22.95l29.33,56.48h22.95l-30.91-59.58C709.84,721.55,715.49,716.87,719.8,710.49 M687.67,707.31
			h-29.14V670.4h29.14c5.06,0,9.4,1.82,13.02,5.43c3.55,3.63,5.33,8,5.33,13.12c0,5.06-1.78,9.37-5.33,12.93
			C697.07,705.5,692.73,707.31,687.67,707.31"/>
		<polygon points="785.46,716.77 839.04,650.07 813,650.07 766.17,708.25 766.17,650.07 745.83,650.07 745.83,784.13 766.17,784.13 
			766.17,740.75 772.44,732.98 814.5,784.13 840.92,784.13 		"/>
		<polygon points="499.53,650.07 489.57,650.07 482.63,650.07 465.96,650.07 406.1,751.72 406.1,657.6 420.88,650.07 406.1,650.07 
			403.97,650.07 381.56,650.07 321.69,751.72 321.69,657.77 336.8,650.07 321.69,650.07 319.89,650.07 301.36,650.07 301.36,784.12 
			326.28,784.12 385.67,683.23 385.67,784.12 410.59,784.12 485.28,657.32 		"/>
		<path d="M634.9,717.91l-17.59-10.99h-0.16c-4.95-34.17-34.28-60.46-69.83-60.48c-35.55,0.01-64.89,26.32-69.83,60.49l13.44,8.03
			l4.71,2.82l-4.64,2.81l-13.3,8.04c5.51,33.54,34.54,59.14,69.63,59.16c34.88-0.01,63.75-25.33,69.5-58.56h0.16
			c-0.02-0.1-0.07-0.19-0.09-0.3L634.9,717.91z M608.52,720.75l-13.31,8.15c0.01,0.02,0.02,0.04,0.02,0.07h-0.06
			c-5.31,21.53-24.67,37.53-47.84,37.54c-23.28-0.01-42.74-16.15-47.95-37.83l18.02-10.89l-18.32-10.95l-0.02,0.02
			c4.72-22.34,24.53-39.11,48.27-39.12c23.74,0.01,43.55,16.78,48.27,39.12l-0.02-0.02l-0.15,0.09h0.16c-0.58,0.01,0,0.01,0,0.01
			l12.86,8.13l4.7,2.84L608.52,720.75z"/>
	</g>
	<g>
		<path class="st0" d="M762.79,391.08v-49.23c0-48.64-10.09-85.86-29.99-110.62c-20.56-25.42-49.58-38.31-86.26-38.31
			c-34.96,0-62.67,13.71-82.35,40.76c-19.56,26.9-29.07,63.59-29.07,112.14v73.33c0,44.96,9.55,79.77,28.38,103.45
			c19.44,24.36,47.93,36.71,84.67,36.71c33.31,0,59.11-9.6,78.9-29.39c18.94-19.76,30.13-48.64,33.29-85.84l0.21-2.4h-59.42
			l-0.23,1.96c-2.27,19.56-7.46,34.76-15.37,45.07c-8.35,9.79-18.98,14.35-33.45,14.35c-17.51,0-29.55-6.74-37.9-21.2
			c-8.41-14.57-12.49-37.68-12.49-70.64v-20.14H762.79z M698.5,321.09v20.1h-96.79v-9.71c0-29.69,4.07-50.43,12.43-63.42
			c8.33-12.88,20.39-18.88,37.96-18.88c14.62,0,25.77,6.18,34.1,18.92C694.37,280.05,698.5,297.88,698.5,321.09"/>
		<path class="st0" d="M382.53,60.2c8.12,0,14.74-6.61,14.74-14.74V20.28c0-8.12-6.61-14.73-14.74-14.73H260.03
			c-8.12,0-14.74,6.61-14.74,14.73v25.19c0,8.12,6.61,14.74,14.74,14.74h22.01c2.64,0,4.88,0.98,6.3,2.75
			c1.42,1.78,1.88,4.17,1.3,6.75l-77.45,343.17c-0.2,0.89-0.4,1.56-0.58,2.07c-0.18-0.51-0.38-1.19-0.57-2.08L134.44,69.72
			c-0.57-2.58-0.11-4.98,1.32-6.76c1.43-1.78,3.67-2.76,6.31-2.76h22.83c8.12,0,14.73-6.61,14.73-14.74V20.28
			c0-8.12-6.61-14.73-14.73-14.73H36.83c-8.12,0-14.73,6.61-14.73,14.73v25.19c0,8.12,6.61,14.74,14.73,14.74h9.25
			c5.85,0,12.01,4.79,13.45,10.46l97.68,384.07l26.39,103.79h53.7L352.83,70.68c1.35-5.68,7.41-10.47,13.25-10.47H382.53z"/>
		<path class="st0" d="M394.77,129.84c0,8.12,6.61,14.73,14.73,14.73h34.03c8.12,0,14.74-6.61,14.74-14.73v-25.21
			c0-8.12-6.62-14.73-14.74-14.73H409.5c-8.12,0-14.73,6.61-14.73,14.73V129.84z"/>
		<path class="st0" d="M482.51,509.34h-11.59c-5.68,0-10.3-4.62-10.3-10.3V223.47c0-8.12-6.61-14.73-14.73-14.73h-73.04
			c-8.12,0-14.73,6.61-14.73,14.73v22.81c0,8.12,6.61,14.73,14.73,14.73h11.62c5.68,0,10.3,4.62,10.3,10.3v227.73
			c0,5.68-4.62,10.3-10.3,10.3c0,0-26.35,6.61-26.35,14.74v37.54h139.13v-37.54C497.25,515.95,490.64,509.34,482.51,509.34"/>
	</g>
</g>
</svg>
