<?xml version="1.0" encoding="utf-8"?>
<!-- Generator: Adobe Illustrator 25.0.0, SVG Export Plug-In . SVG Version: 6.00 Build 0)  -->
<svg version="1.1" id="Layer_1" xmlns="http://www.w3.org/2000/svg" xmlns:xlink="http://www.w3.org/1999/xlink" x="0px" y="0px"
	 viewBox="0 0 846.8 793.3" style="enable-background:new 0 0 846.8 793.3;" xml:space="preserve">
<style type="text/css">
	.st0{fill:#EA2B3A;}
	.st1{fill:#FFFFFF;}
</style>
<g>
	<path d="M759.6,361.8v-44.7c0-44.1-9.2-77.9-27.2-100.3c-18.7-23.1-45-34.7-78.3-34.7c-31.7,0-56.9,12.4-74.8,37
		c-17.8,24.4-26.4,57.7-26.4,101.7v66.5c0,40.8,8.7,72.4,25.8,93.8c17.6,22.1,43.5,33.3,76.9,33.3c30.3,0,53.7-8.7,71.6-26.7
		c17.2-17.9,27.4-44.1,30.2-77.9l0.2-2.2h-53.9l-0.2,1.8c-2.1,17.7-6.8,31.5-14,40.9c-7.6,8.9-17.2,13-30.4,13
		c-15.9,0-26.8-6.1-34.4-19.2c-7.6-13.2-11.3-34.2-11.3-64.1v-18.3H759.6z M701.3,298.3v18.2h-87.9v-8.8c0-26.9,3.7-45.7,11.3-57.5
		c7.6-11.7,18.5-17.1,34.5-17.1c13.3,0,23.4,5.6,31,17.2C697.5,261.1,701.3,277.3,701.3,298.3"/>
	<path d="M414.4,61.6c7.4,0,13.4-6,13.4-13.4V25.4c0-7.4-6-13.4-13.4-13.4H303.2c-7.4,0-13.4,6-13.4,13.4v22.8
		c0,7.4,6,13.4,13.4,13.4h20c2.4,0,4.4,0.9,5.7,2.5c1.3,1.6,1.7,3.8,1.2,6.1l-70.3,311.3c-0.2,0.8-0.4,1.4-0.5,1.9
		c-0.2-0.5-0.3-1.1-0.5-1.9L189.2,70.3c-0.5-2.3-0.1-4.5,1.2-6.1c1.3-1.6,3.3-2.5,5.7-2.5h20.7c7.4,0,13.4-6,13.4-13.4V25.4
		c0-7.4-6-13.4-13.4-13.4H100.6c-7.4,0-13.4,6-13.4,13.4v22.8c0,7.4,6,13.4,13.4,13.4h8.4c5.3,0,10.9,4.3,12.2,9.5l88.7,348.4
		l24,94.1h48.8L387.5,71.1c1.2-5.1,6.7-9.5,12-9.5H414.4z"/>
	<path d="M425.5,124.8c0,7.4,6,13.4,13.4,13.4h30.9c7.4,0,13.4-6,13.4-13.4v-22.9c0-7.4-6-13.4-13.4-13.4h-30.9
		c-7.4,0-13.4,6-13.4,13.4V124.8z"/>
	<path d="M505.2,469.1h-10.5c-5.1,0-9.3-4.2-9.3-9.3v-250c0-7.4-6-13.4-13.4-13.4h-66.3c-7.4,0-13.4,6-13.4,13.4v20.7
		c0,7.4,6,13.3,13.4,13.3h10.5c5.2,0,9.3,4.2,9.3,9.4v206.6c0,5.1-4.2,9.3-9.3,9.3c0,0-23.9,6-23.9,13.4v34.1h126.3v-34.1
		C518.6,475.1,512.5,469.1,505.2,469.1"/>
</g>
<g>
	<g>
		<path class="st0" d="M368.6,543.8h18.9l25.1,109.1l20.9-109.1h22.9l-28.6,135.8h-26.3l-23.3-90l-23.8,90h-27.3l-28.6-135.8h22.8
			L342,652.9L368.6,543.8z"/>
	</g>
	<g>
		<path class="st1" d="M514.2,541.7c-21.9,7-39.5,24.2-46.7,45.8c-3,8.9-4.4,17.8-4.3,26.3c-0.1,18.6,6.7,36.3,19.8,50.2
			c0.3,0.3,0.6,0.6,0.9,1c0.1,0.1,0.3,0.3,0.4,0.4c0.1,0.1,0.2,0.2,0.3,0.3c19.2,19.7,49.1,29.2,80.6,19.2c4.4-1.4,8.5-3.2,12.5-5.4
			c16.1-8.2,28.7-22.7,34.5-40.3c2.8-8.4,4-16.7,4-24.7C616.9,564,567.8,524.6,514.2,541.7z"/>
		<path class="st0" d="M549.8,652.7c-34,11-64.8-20.1-53.5-54c4-12,13.6-21.5,25.6-25.4c34-11,64.8,20.1,53.5,54
			C571.5,639.3,561.8,648.8,549.8,652.7z"/>
		<path class="st0" d="M514.2,541.7c-21.9,7-39.5,24.2-46.7,45.8c-3,8.9-4.4,17.8-4.3,26.3c-0.1,18.6,6.7,36.3,19.8,50.2
			c0.3,0.3,0.6,0.6,0.9,1c0.1,0.1,0.3,0.3,0.4,0.4c0.1,0.1,0.2,0.2,0.3,0.3c19.2,19.7,49.1,29.2,80.6,19.2c4.4-1.4,8.5-3.2,12.5-5.4
			c16.1-8.2,28.7-22.7,34.5-40.3c2.8-8.4,4-16.7,4-24.7C616.9,564,567.8,524.6,514.2,541.7z M559.5,681.4
			c-8.2,2.7-16.5,3.9-24.6,3.8c-18.2-0.4-35.4-7.6-48.7-21c-19.4-19.5-25.6-47.3-16.6-74.3c6.8-20.4,23-36.5,43.4-43.1
			c7.9-2.5,15.8-3.8,23.5-3.8c18.6,0.2,36.2,7.4,49.7,21c19.4,19.5,25.6,47.3,16.6,74.3C596.2,658.7,580,674.8,559.5,681.4z"/>
	</g>
	<polygon class="st0" points="86.3,640.5 29,544.5 7.7,544.5 7.7,678.7 28.1,678.7 28.1,582.8 85.5,678.7 106.8,678.7 106.8,544.5 
		86.3,544.5 	"/>
	<polygon class="st0" points="123.3,678.7 191.7,678.7 191.7,658.4 143.6,658.4 143.6,621.6 180.8,621.6 180.8,601.3 143.6,601.3 
		143.6,564.9 191.7,564.9 191.7,544.5 123.3,544.5 	"/>
	<polygon class="st0" points="207.3,564.9 235.7,564.9 235.7,678.7 256.1,678.7 256.1,564.9 284.5,564.9 284.5,544.5 207.3,544.5 	
		"/>
	<g>
		<path class="st0" d="M713.6,605c4.4-6.5,6.7-13.7,6.7-21.6c0-10.8-3.8-19.9-11.5-27.5c-7.6-7.6-16.7-11.4-27.4-11.4h-49.5v134.2
			h20.3v-56.5h23l29.4,56.5h23l-30.9-59.6C703.6,616.1,709.3,611.4,713.6,605 M681.4,601.8h-29.2v-36.9h29.2c5.1,0,9.4,1.8,13,5.4
			c3.6,3.6,5.3,8,5.3,13.1c0,5.1-1.8,9.4-5.3,12.9C690.8,600,686.5,601.8,681.4,601.8"/>
		<polygon class="st0" points="783.6,611.3 837.2,544.5 811.2,544.5 764.3,602.8 764.3,544.5 743.9,544.5 743.9,678.7 764.3,678.7 
			764.3,635.3 770.6,627.5 812.7,678.7 839.1,678.7 		"/>
	</g>
</g>
<g>
	<path d="M318.4,741.4h4.9v17h0.1c1.7-3,4.9-4.9,9.2-4.9c6.7,0,11.5,5.6,11.5,13.8c0,9.7-6.2,14.5-12.2,14.5c-3.9,0-7-1.5-9.1-5
		h-0.1l-0.2,4.4h-4.3c0.1-1.8,0.2-4.6,0.2-6.9V741.4z M323.3,770.3c0,0.6,0.1,1.2,0.2,1.8c1,3.5,3.9,5.8,7.4,5.8
		c5.2,0,8.2-4.2,8.2-10.4c0-5.4-2.8-10.1-8.1-10.1c-3.3,0-6.4,2.3-7.4,6c-0.1,0.6-0.3,1.2-0.3,2V770.3z"/>
	<path d="M368.5,754.1l5.9,15.9c0.6,1.8,1.3,3.9,1.7,5.5h0.1c0.5-1.6,1.1-3.7,1.7-5.6l5.4-15.9h5.2l-7.4,19.3
		c-3.5,9.3-5.9,14-9.3,17c-2.5,2.1-4.9,2.9-6,3.1l-1.2-4.1c1.3-0.4,2.9-1.2,4.4-2.4c1.3-1.1,3-3,4.1-5.5c0.2-0.5,0.4-0.8,0.4-1.2
		c0-0.3-0.1-0.7-0.4-1.3l-10-24.9H368.5z"/>
	<path d="M427.5,743.9c3-0.4,6.5-0.8,10.4-0.8c7,0,12,1.6,15.3,4.7c3.4,3.1,5.3,7.5,5.3,13.5c0,6.2-1.9,11.1-5.4,14.7
		c-3.6,3.5-9.3,5.4-16.7,5.4c-3.5,0-6.4-0.2-8.9-0.5V743.9z M432.4,777.3c1.2,0.2,3,0.3,4.9,0.3c10.4,0,16.1-5.8,16.1-16
		c0.1-8.9-5-14.6-15.3-14.6c-2.5,0-4.4,0.3-5.7,0.5V777.3z"/>
	<path d="M500.5,774.7c0,2.4,0.1,4.6,0.4,6.5h-4.4l-0.4-3.4h-0.1c-1.5,2.1-4.4,4-8.3,4c-5.4,0-8.3-3.9-8.3-7.8
		c0-6.5,5.8-10.1,16.3-10v-0.6c0-2.2-0.7-6.3-6.2-6.3c-2.5,0-5.2,0.8-7.1,2l-1.1-3.2c2.2-1.5,5.5-2.4,8.9-2.4
		c8.3,0,10.3,5.7,10.3,11.1V774.7z M495.8,767.4c-5.4-0.2-11.5,0.8-11.5,6c0,3.2,2.2,4.7,4.6,4.7c3.6,0,5.8-2.2,6.6-4.5
		c0.1-0.6,0.2-1.1,0.2-1.6V767.4z"/>
	<path d="M531,746.3v7.8h7.1v3.7H531v14.6c0,3.4,1,5.3,3.7,5.3c1.3,0,2.2-0.2,2.9-0.3l0.2,3.7c-0.9,0.5-2.5,0.7-4.4,0.7
		c-2.2,0-4.1-0.8-5.3-2.1c-1.3-1.6-1.8-3.9-1.8-7.1v-14.8H522v-3.7h4.2v-6.5L531,746.3z"/>
	<path d="M568.8,781.2l-12.4-37.7h5.3l5.9,18.6c1.6,5.1,3,9.7,4,14.1h0.2c1.1-4.4,2.6-9.1,4.3-14l6.4-18.7h5.2l-13.5,37.7H568.8z"/>
	<path d="M613,746.5c0,1.7-1.2,3-3.1,3c-1.8,0-3-1.3-3-3c-0.1-1.7,1.2-3.1,3-3.1C611.7,743.4,613,744.7,613,746.5z M607.5,781.2v-27
		h4.9v27H607.5z"/>
	<path d="M640.1,768.5c0.1,6.7,4.3,9.4,9.3,9.4c3.5,0,5.7-0.6,7.5-1.4l0.8,3.5c-1.7,0.8-4.7,1.7-9,1.7c-8.3,0-13.3-5.5-13.3-13.7
		c0-8.2,4.8-14.6,12.8-14.6c8.8,0,11.1,7.7,11.1,12.7c0,1-0.1,1.8-0.2,2.3H640.1z M654.6,765c0.1-3.1-1.3-7.9-6.8-7.9
		c-5,0-7.2,4.5-7.6,7.9H654.6z"/>
	<path d="M688.2,746.3v7.8h7.1v3.7h-7.1v14.6c0,3.4,1,5.3,3.7,5.3c1.3,0,2.2-0.2,2.9-0.3l0.2,3.7c-0.9,0.5-2.5,0.7-4.4,0.7
		c-2.2,0-4.1-0.8-5.3-2.1c-1.3-1.6-1.8-3.9-1.8-7.1v-14.8h-4.2v-3.7h4.2v-6.5L688.2,746.3z"/>
	<path d="M726,781.2l-12.4-37.7h5.3l5.9,18.6c1.6,5.1,3,9.7,4,14.1h0.2c1.1-4.4,2.6-9.1,4.3-14l6.4-18.7h5.2l-13.5,37.7H726z"/>
	<path d="M768.6,769.3l-3.9,11.9h-5.1l12.9-37.7h5.8l12.9,37.7H786l-4-11.9H768.6z M780.9,765.5l-3.7-10.9c-0.8-2.5-1.4-4.7-2-6.9
		h-0.2c-0.5,2.2-1.1,4.5-1.8,6.8l-3.7,10.9H780.9z"/>
	<path d="M839.1,780c-1.8,0.8-5.4,1.8-10,1.8c-10.6,0-18.6-6.8-18.6-19.1c0-11.8,8-19.8,19.7-19.8c4.6,0,7.7,0.9,9,1.6l-1.2,4
		c-1.8-0.9-4.5-1.6-7.6-1.6c-8.8,0-14.7,5.7-14.7,15.6c0,9.2,5.3,15.2,14.5,15.2c3,0,6-0.6,7.9-1.6L839.1,780z"/>
</g>
</svg>
