<?xml version="1.0" encoding="utf-8"?>
<!-- Generator: Adobe Illustrator 25.0.0, SVG Export Plug-In . SVG Version: 6.00 Build 0)  -->
<svg version="1.1" id="Layer_1" xmlns="http://www.w3.org/2000/svg" xmlns:xlink="http://www.w3.org/1999/xlink" x="0px" y="0px"
	 viewBox="0 0 367.8 92.5" style="enable-background:new 0 0 367.8 92.5;" xml:space="preserve">
<style type="text/css">
	.st0{fill:#EA2B3A;}
	.st1{fill:#FFFFFF;}
</style>
<g>
	<g>
		<g>
			<path d="M70.7,36.8v-4.7c0-4.6-1-8.2-2.9-10.5c-2-2.4-4.7-3.7-8.2-3.7c-3.3,0-6,1.3-7.9,3.9c-1.9,2.6-2.8,6.1-2.8,10.7v7
				c0,4.3,0.9,7.6,2.7,9.9c1.9,2.3,4.6,3.5,8.1,3.5c3.2,0,5.6-0.9,7.5-2.8c1.8-1.9,2.9-4.6,3.2-8.2l0-0.2h-5.7l0,0.2
				c-0.2,1.9-0.7,3.3-1.5,4.3c-0.8,0.9-1.8,1.4-3.2,1.4c-1.7,0-2.8-0.6-3.6-2c-0.8-1.4-1.2-3.6-1.2-6.7v-1.9H70.7z M64.5,30.1V32
				h-9.2v-0.9c0-2.8,0.4-4.8,1.2-6c0.8-1.2,1.9-1.8,3.6-1.8c1.4,0,2.5,0.6,3.3,1.8C64.1,26.2,64.5,27.9,64.5,30.1"/>
			<path d="M34.4,5.2c0.8,0,1.4-0.6,1.4-1.4V1.4c0-0.8-0.6-1.4-1.4-1.4H22.7c-0.8,0-1.4,0.6-1.4,1.4v2.4c0,0.8,0.6,1.4,1.4,1.4h2.1
				c0.3,0,0.5,0.1,0.6,0.3c0.1,0.2,0.2,0.4,0.1,0.6l-7.4,32.7c0,0.1,0,0.1-0.1,0.2c0,0,0-0.1-0.1-0.2L10.7,6.1
				c-0.1-0.2,0-0.5,0.1-0.6c0.1-0.2,0.3-0.3,0.6-0.3h2.2c0.8,0,1.4-0.6,1.4-1.4V1.4C15,0.6,14.4,0,13.6,0H1.4C0.6,0,0,0.6,0,1.4v2.4
				c0,0.8,0.6,1.4,1.4,1.4h0.9c0.6,0,1.1,0.5,1.3,1l9.3,36.6l2.5,9.9h5.1l11-46.5c0.1-0.5,0.7-1,1.3-1H34.4z"/>
			<path d="M35.6,11.8c0,0.8,0.6,1.4,1.4,1.4h3.2c0.8,0,1.4-0.6,1.4-1.4V9.4C41.6,8.7,41,8,40.2,8H37c-0.8,0-1.4,0.6-1.4,1.4V11.8z"
				/>
			<path d="M43.9,48h-1.1c-0.5,0-1-0.4-1-1V20.8c0-0.8-0.6-1.4-1.4-1.4h-7c-0.8,0-1.4,0.6-1.4,1.4v2.2c0,0.8,0.6,1.4,1.4,1.4h1.1
				c0.5,0,1,0.4,1,1V47c0,0.5-0.4,1-1,1c0,0-2.5,0.6-2.5,1.4V53h13.3v-3.6C45.3,48.7,44.7,48,43.9,48"/>
		</g>
		<g>
			<g>
				<path class="st0" d="M205.4,6.3h6.5l8.6,37.6l7.2-37.6h7.9l-9.9,46.9h-9.1l-8-31.1l-8.2,31.1h-9.4l-9.9-46.9h7.9l7.1,37.6
					L205.4,6.3z"/>
			</g>
			<g>
				<path class="st1" d="M255.6,5.5c-7.6,2.4-13.6,8.4-16.1,15.8c-1,3.1-1.5,6.1-1.5,9.1c0,6.4,2.3,12.5,6.8,17.3
					c0.1,0.1,0.2,0.2,0.3,0.3c0,0,0.1,0.1,0.1,0.1c0,0,0.1,0.1,0.1,0.1c6.6,6.8,17,10.1,27.8,6.6c1.5-0.5,2.9-1.1,4.3-1.8
					c5.6-2.8,9.9-7.8,11.9-13.9c0.9-2.9,1.4-5.8,1.4-8.5C291.1,13.2,274.1-0.4,255.6,5.5z"/>
				<path class="st0" d="M267.9,43.9c-11.7,3.8-22.4-6.9-18.5-18.6c1.4-4.1,4.7-7.4,8.8-8.8c11.7-3.8,22.4,6.9,18.5,18.6
					C275.4,39.2,272.1,42.5,267.9,43.9z"/>
				<path class="st0" d="M255.6,5.5c-7.6,2.4-13.6,8.4-16.1,15.8c-1,3.1-1.5,6.1-1.5,9.1c0,6.4,2.3,12.5,6.8,17.3
					c0.1,0.1,0.2,0.2,0.3,0.3c0,0,0.1,0.1,0.1,0.1c0,0,0.1,0.1,0.1,0.1c6.6,6.8,17,10.1,27.8,6.6c1.5-0.5,2.9-1.1,4.3-1.8
					c5.6-2.8,9.9-7.8,11.9-13.9c0.9-2.9,1.4-5.8,1.4-8.5C291.1,13.2,274.1-0.4,255.6,5.5z M271.3,53.8c-2.8,0.9-5.7,1.3-8.5,1.3
					c-6.3-0.1-12.2-2.6-16.8-7.3c-6.7-6.7-8.8-16.3-5.7-25.6c2.3-7,7.9-12.6,15-14.9c2.7-0.9,5.4-1.3,8.1-1.3
					c6.4,0.1,12.5,2.6,17.2,7.3c6.7,6.7,8.8,16.3,5.7,25.6C283.9,45.9,278.3,51.5,271.3,53.8z"/>
			</g>
			<polygon class="st0" points="107.9,39.6 88.2,6.5 80.8,6.5 80.8,52.8 87.8,52.8 87.8,19.7 107.6,52.8 115,52.8 115,6.5 
				107.9,6.5 			"/>
			<polygon class="st0" points="120.7,52.8 144.3,52.8 144.3,45.8 127.7,45.8 127.7,33.1 140.5,33.1 140.5,26.1 127.7,26.1 
				127.7,13.5 144.3,13.5 144.3,6.5 120.7,6.5 			"/>
			<polygon class="st0" points="149.7,13.5 159.5,13.5 159.5,52.8 166.5,52.8 166.5,13.5 176.4,13.5 176.4,6.5 149.7,6.5 			"/>
			<g>
				<path class="st0" d="M324.4,27.4c1.5-2.2,2.3-4.7,2.3-7.4c0-3.7-1.3-6.9-4-9.5c-2.6-2.6-5.8-3.9-9.4-3.9h-17.1v46.3h7V33.3h7.9
					l10.1,19.5h7.9l-10.7-20.6C321,31.2,323,29.6,324.4,27.4 M313.3,26.3h-10.1V13.5h10.1c1.7,0,3.2,0.6,4.5,1.9
					c1.2,1.3,1.8,2.8,1.8,4.5c0,1.7-0.6,3.2-1.8,4.5C316.6,25.7,315.1,26.3,313.3,26.3"/>
				<polygon class="st0" points="348.6,29.6 367.1,6.5 358.1,6.5 341.9,26.6 341.9,6.5 334.9,6.5 334.9,52.8 341.9,52.8 341.9,37.9 
					344.1,35.2 358.6,52.8 367.8,52.8 				"/>
			</g>
		</g>
	</g>
	<g>
		<g>
			<path d="M188,74.5h1.7v5.9h0c0.6-1,1.7-1.7,3.2-1.7c2.3,0,4,1.9,4,4.8c0,3.3-2.1,5-4.2,5c-1.4,0-2.4-0.5-3.1-1.7h0l-0.1,1.5H188
				c0-0.6,0.1-1.6,0.1-2.4V74.5z M189.7,84.4c0,0.2,0,0.4,0.1,0.6c0.3,1.2,1.3,2,2.5,2c1.8,0,2.8-1.4,2.8-3.6c0-1.9-1-3.5-2.8-3.5
				c-1.1,0-2.2,0.8-2.6,2.1c0,0.2-0.1,0.4-0.1,0.7V84.4z"/>
			<path d="M205.3,78.9l2,5.5c0.2,0.6,0.4,1.4,0.6,1.9h0c0.2-0.5,0.4-1.3,0.6-1.9l1.9-5.5h1.8l-2.6,6.6c-1.2,3.2-2,4.8-3.2,5.9
				c-0.9,0.7-1.7,1-2.1,1.1L204,91c0.4-0.1,1-0.4,1.5-0.8c0.4-0.4,1-1,1.4-1.9c0.1-0.2,0.1-0.3,0.1-0.4c0-0.1,0-0.2-0.1-0.4
				l-3.4-8.6H205.3z"/>
			<path d="M225.7,75.3c1-0.2,2.3-0.3,3.6-0.3c2.4,0,4.1,0.6,5.3,1.6c1.2,1.1,1.8,2.6,1.8,4.7c0,2.1-0.7,3.8-1.9,5.1
				c-1.2,1.2-3.2,1.9-5.8,1.9c-1.2,0-2.2-0.1-3.1-0.2V75.3z M227.4,86.9c0.4,0.1,1,0.1,1.7,0.1c3.6,0,5.5-2,5.5-5.5
				c0-3.1-1.7-5-5.3-5c-0.9,0-1.5,0.1-2,0.2V86.9z"/>
			<path d="M250.9,86c0,0.8,0,1.6,0.1,2.2h-1.5l-0.2-1.2h0c-0.5,0.7-1.5,1.4-2.9,1.4c-1.9,0-2.9-1.4-2.9-2.7c0-2.3,2-3.5,5.6-3.5V82
				c0-0.8-0.2-2.2-2.1-2.2c-0.9,0-1.8,0.3-2.4,0.7l-0.4-1.1c0.8-0.5,1.9-0.8,3.1-0.8c2.9,0,3.6,2,3.6,3.8V86z M249.3,83.4
				c-1.9-0.1-4,0.3-4,2.1c0,1.1,0.8,1.6,1.6,1.6c1.2,0,2-0.8,2.3-1.6c0-0.2,0.1-0.4,0.1-0.5V83.4z"/>
			<path d="M261.4,76.2v2.7h2.4v1.3h-2.4v5c0,1.2,0.3,1.8,1.3,1.8c0.4,0,0.8-0.1,1-0.1l0.1,1.3c-0.3,0.2-0.8,0.3-1.5,0.3
				c-0.8,0-1.4-0.3-1.8-0.7c-0.4-0.5-0.6-1.4-0.6-2.5v-5.1h-1.4v-1.3h1.4v-2.3L261.4,76.2z"/>
			<path d="M274.5,88.2l-4.3-13h1.8l2,6.4c0.5,1.8,1,3.4,1.4,4.9h0.1c0.4-1.5,0.9-3.1,1.5-4.8l2.2-6.5h1.8l-4.7,13H274.5z"/>
			<path d="M289.7,76.2c0,0.6-0.4,1-1.1,1c-0.6,0-1-0.5-1-1c0-0.6,0.4-1.1,1-1.1C289.3,75.2,289.7,75.6,289.7,76.2z M287.8,88.2
				v-9.3h1.7v9.3H287.8z"/>
			<path d="M299.1,83.8c0,2.3,1.5,3.2,3.2,3.2c1.2,0,2-0.2,2.6-0.5l0.3,1.2c-0.6,0.3-1.6,0.6-3.1,0.6c-2.9,0-4.6-1.9-4.6-4.7
				c0-2.8,1.7-5,4.4-5c3,0,3.8,2.7,3.8,4.4c0,0.3,0,0.6-0.1,0.8H299.1z M304.1,82.6c0-1.1-0.4-2.7-2.4-2.7c-1.7,0-2.5,1.6-2.6,2.7
				H304.1z"/>
			<path d="M315.7,76.2v2.7h2.4v1.3h-2.4v5c0,1.2,0.3,1.8,1.3,1.8c0.4,0,0.8-0.1,1-0.1l0.1,1.3c-0.3,0.2-0.8,0.3-1.5,0.3
				c-0.8,0-1.4-0.3-1.8-0.7c-0.4-0.5-0.6-1.4-0.6-2.5v-5.1h-1.4v-1.3h1.4v-2.3L315.7,76.2z"/>
			<path d="M328.7,88.2l-4.3-13h1.8l2,6.4c0.5,1.8,1,3.4,1.4,4.9h0.1c0.4-1.5,0.9-3.1,1.5-4.8l2.2-6.5h1.8l-4.7,13H328.7z"/>
			<path d="M343.4,84.1l-1.3,4.1h-1.8l4.4-13h2l4.4,13h-1.8l-1.4-4.1H343.4z M347.7,82.8l-1.3-3.7c-0.3-0.9-0.5-1.6-0.7-2.4h-0.1
				c-0.2,0.8-0.4,1.6-0.6,2.4l-1.3,3.8H347.7z"/>
			<path d="M367.7,87.8c-0.6,0.3-1.9,0.6-3.5,0.6c-3.7,0-6.4-2.3-6.4-6.6c0-4.1,2.8-6.8,6.8-6.8c1.6,0,2.6,0.3,3.1,0.6l-0.4,1.4
				c-0.6-0.3-1.5-0.5-2.6-0.5c-3.1,0-5.1,2-5.1,5.4c0,3.2,1.8,5.2,5,5.2c1,0,2.1-0.2,2.7-0.5L367.7,87.8z"/>
		</g>
	</g>
</g>
</svg>
